HIERARCHY
ROOT Hips
{
	OFFSET 0.000000 0.000000 0.000000
	CHANNELS 6 Xposition Yposition Zposition Zrotation Yrotation Xrotation 
	JOINT LeftUpLeg_virtual
	{
		OFFSET 0.000000 0.000000 0.000000
		CHANNELS 3 Zrotation Yrotation Xrotation
		JOINT LeftUpLeg
		{
			OFFSET 10.205400 -3.823500 0.155100
			CHANNELS 3 Zrotation Yrotation Xrotation
			JOINT LeftLeg
			{
				OFFSET 0.708757 -12.982077 0.567790
				CHANNELS 3 Zrotation Yrotation Xrotation
				JOINT LeftFoot
				{
					OFFSET -0.708756 -10.717838 -2.184338
					CHANNELS 3 Zrotation Yrotation Xrotation
					JOINT LeftToeBase
					{
						OFFSET 0.108149 -7.191104 7.560241
						CHANNELS 3 Zrotation Yrotation Xrotation
						End Site
						{
							OFFSET 0.000000 0.000000 0.000000
						}
					}
				}
			}
		}
	}
	JOINT RightUpLeg_virtual
	{
		OFFSET 0.000000 0.000000 0.000000
		CHANNELS 3 Zrotation Yrotation Xrotation
		JOINT RightUpLeg
		{
			OFFSET -10.205400 -3.823500 0.005500
			CHANNELS 3 Zrotation Yrotation Xrotation
			JOINT RightLeg
			{
				OFFSET -0.708756 -12.982134 0.610632
				CHANNELS 3 Zrotation Yrotation Xrotation
				JOINT RightFoot
				{
					OFFSET 0.708754 -10.717769 -1.945823
					CHANNELS 3 Zrotation Yrotation Xrotation
					JOINT RightToeBase
					{
						OFFSET -0.108140 -7.191069 7.372968
						CHANNELS 3 Zrotation Yrotation Xrotation
						End Site
						{
							OFFSET 0.000000 0.000000 0.000000
						}
					}
				}
			}
		}
	}
	JOINT Spine_virtual
	{
		OFFSET 0.000000 0.000000 0.000000
		CHANNELS 3 Zrotation Yrotation Xrotation
		JOINT Spine
		{
			OFFSET 0.000000 6.876099 0.125700
			CHANNELS 3 Zrotation Yrotation Xrotation
			JOINT Spine1
			{
				OFFSET 0.000000 8.022060 0.146608
				CHANNELS 3 Zrotation Yrotation Xrotation
				JOINT Spine2
				{
					OFFSET 0.000000 9.168068 0.167552
					CHANNELS 3 Zrotation Yrotation Xrotation
					JOINT Neck_virtual
					{
						OFFSET 0.000000 0.000000 0.000000
						CHANNELS 3 Zrotation Yrotation Xrotation
						JOINT Neck
						{
							OFFSET 0.000000 10.314075 0.188496
							CHANNELS 3 Zrotation Yrotation Xrotation
							JOINT Head
							{
								OFFSET 0.000000 7.643700 -2.377400
								CHANNELS 3 Zrotation Yrotation Xrotation
								End Site
								{
									OFFSET 0.000000 0.000000 0.000000
								}
							}
						}
					}
					JOINT LeftShoulder_virtual
					{
						OFFSET 0.000000 0.000000 0.000000
						CHANNELS 3 Zrotation Yrotation Xrotation
						JOINT LeftShoulder
						{
							OFFSET 4.392200 8.824978 0.174984
							CHANNELS 3 Zrotation Yrotation Xrotation
							JOINT LeftArm
							{
								OFFSET 8.771219 -2.981674 -0.026999
								CHANNELS 3 Zrotation Yrotation Xrotation
								JOINT LeftForeArm
								{
									OFFSET 8.512804 0.000000 -0.000000
									CHANNELS 3 Zrotation Yrotation Xrotation
									JOINT LeftHand
									{
										OFFSET 18.484802 0.000000 -0.000000
										CHANNELS 3 Zrotation Yrotation Xrotation
										End Site
										{
											OFFSET 0.000000 0.000000 0.000000
										}
									}
								}
							}
						}
					}
					JOINT RightShoulder_virtual
					{
						OFFSET 0.000000 0.000000 0.000000
						CHANNELS 3 Zrotation Yrotation Xrotation
						JOINT RightShoulder
						{
							OFFSET -4.392200 8.824993 0.141379
							CHANNELS 3 Zrotation Yrotation Xrotation
							JOINT RightArm
							{
								OFFSET -8.771282 -2.981682 -0.094208
								CHANNELS 3 Zrotation Yrotation Xrotation
								JOINT RightForeArm
								{
									OFFSET -8.494598 0.000000 0.000000
									CHANNELS 3 Zrotation Yrotation Xrotation
									JOINT RightHand
									{
										OFFSET -18.483803 0.000000 0.000001
										CHANNELS 3 Zrotation Yrotation Xrotation
										End Site
										{
											OFFSET 0.000000 0.000000 0.000000
										}
									}
								}
							}
						}
					}
				}
			}
		}
	}
}
MOTION
Frames: 8
Frame Time: 0.033333
36.164646 36.611572 -0.948761 179.882157 0.536342 179.885791 -3.367996 0.043855 9.143692 2.562510 -10.514605 -18.503491 11.055209 10.738006 11.972785 -9.541655 6.326238 15.252704 0.000000 0.000000 0.000000 1.669689 1.845580 8.620329 3.729170 -6.174490 -1.260787 -9.211057 -4.680915 5.999764 6.721818 11.055048 7.453705 0.000000 0.000000 0.000000 1.514155 2.445806 -0.319700 -4.654709 -0.043435 -6.520377 0.839977 -3.784750 4.021293 -0.013767 0.003637 -0.006793 0.669142 -2.198643 5.626819 -0.489279 2.501839 1.438297 0.000000 0.000000 0.000000 1.893974 -1.122880 2.787007 -2.665690 -4.993690 -5.778730 -12.608614 22.389121 -21.294858 -5.053949 -30.189054 -3.286334 0.000000 0.000000 0.000000 -1.465401 -0.417486 2.383793 7.573554 -3.154302 -11.416957 25.104529 -32.897388 -27.268731 -0.885481 31.471497 -6.032375 0.000000 0.000000 0.000000 
36.161106 36.611118 -0.958209 179.960062 0.522131 -179.959502 -3.265801 0.014854 9.045303 2.565005 -10.435455 -18.653153 11.059085 11.003297 11.867500 -9.432427 6.460749 15.426327 0.000000 0.000000 0.000000 1.781308 1.904493 8.580584 3.678398 -5.959171 -1.266496 -9.250406 -4.691982 6.217252 6.873680 11.077509 7.047561 0.000000 0.000000 0.000000 1.568816 2.429351 -0.407923 -4.619325 -0.068469 -6.588815 0.818300 -3.825500 4.002440 -0.055508 -0.028157 0.013253 0.690039 -2.154371 5.679960 -0.476577 2.517857 1.457228 0.000000 0.000000 0.000000 1.892309 -1.106382 2.802824 -2.679565 -4.955321 -5.729167 -12.658854 22.383133 -21.392361 -5.059328 -30.222197 -3.313761 0.000000 0.000000 0.000000 -1.458913 -0.368189 2.442168 7.576606 -3.099880 -11.395325 25.090737 -32.838689 -27.180895 -0.981806 31.516207 -6.133890 0.000000 0.000000 0.000000 
36.159088 36.609966 -0.973745 179.981413 0.559522 -179.908385 -3.226024 0.048452 9.054377 2.552492 -10.408303 -18.638365 11.062470 11.093413 11.863485 -9.454557 6.446677 15.442677 0.000000 0.000000 0.000000 1.816534 1.968354 8.564000 3.678678 -5.983720 -1.272240 -9.266428 -4.650079 6.250077 6.869823 11.055429 7.001021 0.000000 0.000000 0.000000 1.580304 2.483216 -0.446112 -4.605256 -0.013903 -6.586659 0.856323 -3.779365 4.013444 0.035228 0.021006 0.005431 0.602059 -2.116471 5.715078 -0.538660 2.469441 1.489160 0.000000 0.000000 0.000000 1.815609 -1.147417 2.876367 -2.684192 -4.991627 -5.847663 -12.707311 22.272654 -21.586656 -5.141199 -30.241786 -3.271299 0.000000 0.000000 0.000000 -1.546023 -0.432003 2.413065 7.586908 -3.160084 -11.441789 25.048923 -32.798637 -27.258197 -0.874551 31.653135 -6.051567 0.000000 0.000000 0.000000 
36.153187 36.607811 -0.988863 179.965799 0.420012 -179.949380 -3.237680 -0.075613 9.053600 2.540199 -10.411687 -18.599160 11.060282 11.106724 11.957208 -9.471519 6.422781 15.344565 0.000000 0.000000 0.000000 1.818485 1.834405 8.601016 3.661835 -5.982613 -1.251576 -9.261583 -4.670520 6.289558 6.883023 11.039456 6.975612 0.000000 0.000000 0.000000 1.579368 2.453242 -0.433384 -4.591227 -0.040391 -6.569340 0.861632 -3.815773 4.041569 0.030561 -0.012747 0.040956 0.592662 -2.157916 5.712313 -0.539179 2.466608 1.577911 0.000000 0.000000 0.000000 1.812703 -1.174182 2.846794 -2.682302 -4.970838 -5.835674 -12.782090 22.217593 -21.665039 -5.100530 -30.309337 -3.279339 0.000000 0.000000 0.000000 -1.550862 -0.449823 2.387183 7.636052 -3.200785 -11.477858 24.908383 -32.768345 -27.107009 -0.867687 31.743693 -6.017424 0.000000 0.000000 0.000000 
36.147659 36.604462 -1.002217 179.952849 0.492603 -179.947208 -3.249468 0.011887 9.045481 2.537492 -10.425602 -18.600902 11.021397 11.110096 12.004918 -9.485985 6.423131 15.284456 0.000000 0.000000 0.000000 1.789570 1.945040 8.609919 3.641249 -5.975513 -1.234586 -9.260526 -4.668521 6.342042 6.873053 11.033269 6.919200 0.000000 0.000000 0.000000 1.585698 2.352189 -0.456405 -4.588525 0.028313 -6.575760 0.851795 -3.758563 4.061900 0.006289 0.050921 0.026355 0.600933 -2.206551 5.764984 -0.549084 2.447853 1.673827 0.000000 0.000000 0.000000 1.836912 -1.195407 2.885474 -2.704179 -4.934998 -5.847968 -12.846187 22.186466 -21.703951 -5.124297 -30.370395 -3.282642 0.000000 0.000000 0.000000 -1.525450 -0.461593 2.404198 7.719698 -3.177819 -11.465510 24.845805 -32.713778 -27.018599 -0.858283 31.819860 -5.993947 0.000000 0.000000 0.000000 
36.142746 36.602043 -1.010900 179.871748 0.529365 -179.952890 -3.323437 0.076514 9.031627 2.431939 -10.223192 -18.565229 10.978014 10.927457 11.973705 -9.463744 6.402389 15.269270 0.000000 0.000000 0.000000 1.690264 2.027067 8.615776 3.651916 -5.955491 -1.233535 -9.234155 -4.622650 6.395721 6.815952 11.076095 6.891075 0.000000 0.000000 0.000000 1.539622 2.498269 -0.475186 -4.621324 0.003961 -6.574834 0.821656 -3.784118 4.091258 -0.007158 0.032494 0.018270 0.637925 -2.311775 5.796057 -0.521238 2.476422 1.779350 0.000000 0.000000 0.000000 1.864312 -1.213201 2.917778 -2.727735 -4.901476 -5.874289 -12.893717 22.177249 -21.718429 -5.150935 -30.395209 -3.281700 0.000000 0.000000 0.000000 -1.502444 -0.519521 2.456016 7.758462 -3.203259 -11.591424 24.750463 -32.682687 -26.936091 -0.810997 31.856323 -5.926228 0.000000 0.000000 0.000000 
36.138603 36.599922 -1.014609 179.982752 0.526782 -179.947850 -3.226851 0.062549 9.023141 2.454929 -10.306069 -18.558553 10.899639 10.826990 11.989992 -9.388105 6.446976 15.225123 0.000000 0.000000 0.000000 1.812744 2.020081 8.623338 3.615822 -5.989982 -1.245603 -9.272836 -4.656858 6.416675 6.867021 10.998829 6.853972 0.000000 0.000000 0.000000 1.613192 2.392741 -0.492686 -4.557178 0.037378 -6.586294 0.855701 -3.782830 4.102978 0.021435 0.049423 0.065539 0.598064 -2.131443 5.786462 -0.539487 2.446882 1.878770 0.000000 0.000000 0.000000 1.787745 -1.210038 2.896197 -2.745981 -4.867637 -5.867270 -12.886205 22.160317 -21.679423 -5.170356 -30.399785 -3.261002 0.000000 0.000000 0.000000 -1.550152 -0.489603 2.403015 7.834449 -3.205459 -11.486084 24.739492 -32.700931 -26.879535 -0.868378 31.835307 -5.989084 0.000000 0.000000 0.000000 
36.136894 36.598988 -1.013877 179.874343 0.586201 -179.910434 -3.308308 0.100126 9.012195 2.424801 -10.286338 -18.559282 10.873025 10.720782 11.883614 -9.321965 6.493324 15.260714 0.000000 0.000000 0.000000 1.694364 2.117936 8.598906 3.633863 -5.949394 -1.275334 -9.240778 -4.608677 6.428495 6.818841 11.041207 6.864194 0.000000 0.000000 0.000000 1.545393 2.524259 -0.533753 -4.590704 -0.003117 -6.600896 0.818093 -3.823916 4.113365 -0.011957 0.014174 0.005970 0.637393 -2.324690 5.882113 -0.506332 2.497016 1.957904 0.000000 0.000000 0.000000 1.858700 -1.207654 2.959636 -2.743528 -4.837218 -5.869392 -12.802069 22.159258 -21.585643 -5.169903 -30.413337 -3.294381 0.000000 0.000000 0.000000 -1.488534 -0.493056 2.517038 7.872177 -3.176011 -11.523872 24.750176 -32.678265 -26.921256 -0.852887 31.793100 -5.993193 0.000000 0.000000 0.000000 
